<svg data-v-0dd9719b="" version="1.0" xmlns="http://www.w3.org/2000/svg" xmlns:xlink="http://www.w3.org/1999/xlink" width="100%" height="100%" viewBox="0 0 340.000000 250.000000" preserveAspectRatio="xMidYMid meet" color-interpolation-filters="sRGB" style="margin: auto;"> <rect data-v-0dd9719b="" x="0" y="0" width="100%" height="100%" fill="#ffffff" fill-opacity="1" class="background"/> <!----> <g data-v-0dd9719b="" fill="#F47340" class="icon-text-wrapper icon-svg-group iconsvg" transform="translate(72.40262603759766,98.08225440979004)"><g class="iconsvg-imagesvg" transform="translate(0,3.330963134765625)"><g><rect fill="#F47340" fill-opacity="0" stroke-width="2" x="0" y="0" width="51.89674072265626" height="45.17355981533932" class="image-rect"/> <svg filter="url(#colors423427508)" x="0" y="0" width="51.89674072265626" height="45.17355981533932" filtersec="colorsf9745506650" class="image-svg-svg primary" style="overflow: visible;"><svg xmlns="http://www.w3.org/2000/svg" xmlns:xlink="http://www.w3.org/1999/xlink" version="1.1" x="0px" y="0px" viewBox="-0.00022789835929870605 6.477002143859863 99.99951171875 87.04499816894531" enable-background="new 0 0 100 100" xml:space="preserve"><g><path d="M34.457,32.881c-0.198,0.613-0.037,1.276,0.426,1.727l6.265,6.104l-1.479,8.623   c-0.107,0.629,0.155,1.276,0.671,1.648c0.289,0.211,0.628,0.32,0.986,0.32c0.271,0,0.542-0.066,0.785-0.19l7.743-4.074l7.747,4.076   c0.574,0.29,1.255,0.238,1.769-0.132c0.513-0.374,0.777-1.02,0.672-1.646l-1.479-8.626l6.265-6.104   c0.46-0.454,0.622-1.115,0.422-1.729c-0.2-0.611-0.722-1.05-1.356-1.143l-8.657-1.259l-3.873-7.847   c-0.288-0.578-0.866-0.936-1.509-0.936c-0.644,0-1.223,0.359-1.509,0.938l-3.874,7.844l-8.657,1.259   C35.178,31.829,34.659,32.268,34.457,32.881z M55.576,38.92c-0.4,0.387-0.578,0.946-0.481,1.491l1.05,6.133l-5.509-2.898   c-0.241-0.125-0.512-0.191-0.781-0.191c-0.273,0-0.544,0.066-0.786,0.191l-5.505,2.898l1.05-6.131   c0.095-0.547-0.086-1.104-0.482-1.491l-4.455-4.343l6.154-0.896c0.547-0.077,1.021-0.422,1.27-0.921l2.752-5.58l2.752,5.58   c0.246,0.499,0.724,0.844,1.27,0.919l6.155,0.897L55.576,38.92z"/><path d="M7.604,34.073l2.906,5.41c0.294,0.547,0.862,0.887,1.483,0.887h0.048h0.008   c0.636-0.02,1.216-0.409,1.479-0.992l2.526-5.595l6.045-1.094c0.634-0.116,1.138-0.572,1.317-1.192   c0.177-0.611-0.014-1.282-0.485-1.708l-4.542-4.135l0.828-6.083c0.087-0.64-0.19-1.262-0.727-1.625   c-0.522-0.355-1.233-0.379-1.775-0.064l-5.334,3.043l-5.529-2.667c-0.564-0.279-1.273-0.202-1.77,0.188   C3.575,18.842,3.34,19.48,3.47,20.113l1.245,6.013l-4.247,4.438c-0.445,0.467-0.586,1.134-0.366,1.741   C0.32,32.9,0.869,33.331,1.5,33.399L7.604,34.073z M7.46,22.771l3.256,1.57c0.491,0.232,1.094,0.22,1.566-0.056l3.139-1.791   l-0.488,3.581c-0.075,0.549,0.125,1.1,0.536,1.475l2.674,2.432l-3.559,0.644c-0.545,0.099-1.007,0.458-1.235,0.964l-1.487,3.295   l-1.709-3.186c-0.259-0.483-0.744-0.811-1.299-0.875l-3.593-0.398l2.499-2.61c0.384-0.398,0.545-0.962,0.434-1.507L7.46,22.771z"/><path d="M99.449,51.7l-4.543-4.132l0.831-6.086c0.086-0.637-0.191-1.259-0.728-1.625   c-0.529-0.353-1.235-0.374-1.78-0.062l-5.33,3.04l-5.53-2.668c-0.564-0.265-1.268-0.198-1.767,0.191   c-0.506,0.396-0.741,1.033-0.616,1.668l1.248,6.013l-4.245,4.435c-0.443,0.459-0.588,1.143-0.368,1.745   c0.226,0.605,0.762,1.024,1.398,1.094l6.104,0.674l2.907,5.409c0.292,0.547,0.86,0.887,1.482,0.887h0.05h0.009   c0.637-0.023,1.218-0.413,1.476-0.991l2.529-5.598l6.04-1.091c0.64-0.116,1.147-0.575,1.319-1.194   C100.11,52.8,99.921,52.128,99.449,51.7z M83.979,44.685l3.256,1.571c0.488,0.232,1.098,0.217,1.564-0.056l3.14-1.793L91.45,47.99   c-0.075,0.553,0.127,1.104,0.54,1.472l2.671,2.434l-3.551,0.644c-0.551,0.093-1.016,0.454-1.239,0.965l-1.489,3.294l-1.711-3.185   c-0.263-0.486-0.747-0.815-1.3-0.878l-3.592-0.396l2.496-2.607c0.381-0.394,0.545-0.956,0.439-1.509L83.979,44.685z"/><path d="M64.271,25.048c3.361,0,6.099-2.733,6.099-6.095s-2.737-6.097-6.099-6.097s-6.095,2.735-6.095,6.097   S60.909,25.048,64.271,25.048z M64.271,16.225c1.504,0,2.729,1.225,2.729,2.729c0,1.505-1.225,2.727-2.729,2.727   c-1.502,0-2.725-1.222-2.725-2.727C61.546,17.449,62.769,16.225,64.271,16.225z"/><path d="M15.254,75.025c-3.361,0-6.095,2.733-6.095,6.095s2.734,6.095,6.095,6.095c3.362,0,6.096-2.733,6.096-6.095   S18.616,75.025,15.254,75.025z M15.254,83.847c-1.504,0-2.728-1.223-2.728-2.727s1.224-2.729,2.728-2.729   c1.504,0,2.728,1.225,2.728,2.729S16.759,83.847,15.254,83.847z"/><path d="M84.779,68.12c-3.364,0-6.099,2.735-6.099,6.097s2.734,6.094,6.099,6.094c3.361,0,6.095-2.732,6.095-6.094   S88.141,68.12,84.779,68.12z M84.779,76.943c-1.505,0-2.727-1.223-2.727-2.727c0-1.505,1.222-2.729,2.727-2.729   c1.504,0,2.727,1.225,2.727,2.729C87.506,75.721,86.283,76.943,84.779,76.943z"/><path d="M11.575,57.446c0-2.86,2.327-5.188,5.188-5.188c0.928,0,1.684-0.756,1.684-1.683   c0-0.928-0.755-1.684-1.684-1.684c-2.837,0-5.163-2.309-5.185-5.147c-0.007-0.923-0.766-1.672-1.689-1.672   c-0.922,0-1.678,0.751-1.684,1.672c-0.022,2.834-2.346,5.144-5.237,5.146c-0.929,0-1.684,0.756-1.684,1.688   c0,0.66,0.417,1.263,1.048,1.527c0.078,0.037,0.149,0.052,0.256,0.08c0.067,0.023,0.157,0.056,0.271,0.066l0.161,0.007   c2.86,0,5.187,2.328,5.187,5.188c0,0.927,0.755,1.683,1.684,1.683S11.575,58.373,11.575,57.446z M9.891,52.354   c-0.503-0.678-1.107-1.28-1.785-1.784c0.679-0.506,1.282-1.108,1.785-1.786c0.503,0.678,1.107,1.283,1.785,1.786   C10.999,51.074,10.396,51.677,9.891,52.354z"/><path d="M25.55,16.516c0.058,0.025,0.121,0.043,0.248,0.075c0.069,0.023,0.159,0.056,0.271,0.066l0.161,0.007   c2.86,0,5.188,2.328,5.188,5.188c0,0.927,0.753,1.683,1.683,1.683c0.927,0,1.683-0.756,1.683-1.683c0-2.86,2.329-5.188,5.191-5.188   c0.927,0,1.683-0.756,1.683-1.684c0-0.93-0.755-1.685-1.683-1.685c-2.836,0-5.163-2.31-5.187-5.146   c-0.006-0.921-0.764-1.672-1.689-1.672c-0.923,0-1.677,0.751-1.685,1.672c-0.021,2.836-2.348,5.146-5.234,5.146   c-0.93,0-1.685,0.755-1.685,1.688C24.495,15.644,24.911,16.246,25.55,16.516z M31.315,14.977c0.68-0.506,1.283-1.108,1.786-1.786   c0.503,0.678,1.106,1.282,1.786,1.786c-0.678,0.504-1.283,1.106-1.786,1.784C32.598,16.083,31.995,15.48,31.315,14.977z"/><path d="M76.884,23.353c0.079,0.036,0.148,0.054,0.26,0.083c0.067,0.024,0.168,0.059,0.278,0.065l0.159,0.008   c2.859,0,5.186,2.327,5.186,5.187c0,0.93,0.754,1.686,1.681,1.686c0.93,0,1.688-0.756,1.688-1.686c0-2.859,2.326-5.187,5.187-5.187   c0.928,0,1.683-0.755,1.683-1.685c0-0.928-0.755-1.683-1.683-1.683c-2.837,0-5.163-2.31-5.187-5.147   c-0.007-0.922-0.764-1.67-1.688-1.67c-0.921,0-1.674,0.748-1.681,1.67c-0.023,2.834-2.348,5.143-5.24,5.145   c-0.927,0-1.683,0.756-1.683,1.689C75.844,22.489,76.262,23.092,76.884,23.353z M82.668,21.822   c0.676-0.506,1.278-1.108,1.782-1.788c0.505,0.68,1.107,1.284,1.783,1.788c-0.676,0.501-1.278,1.104-1.783,1.784   C83.946,22.928,83.344,22.325,82.668,21.822z"/><path d="M49.854,54.786c-0.928,0-1.685,0.755-1.685,1.685v35.37c0,0.928,0.757,1.681,1.685,1.681   c0.927,0,1.685-0.753,1.685-1.681v-35.37C51.539,55.541,50.782,54.786,49.854,54.786z"/><path d="M80.688,37.304c0.333-0.302,0.529-0.717,0.551-1.167c0.023-0.447-0.132-0.878-0.433-1.213   c-0.599-0.659-1.711-0.72-2.378-0.121c-14.339,12.94-22.563,31.43-22.563,50.729c0,2.133,0.103,4.307,0.301,6.467   c0.086,0.87,0.808,1.523,1.679,1.523l0.159-0.006c0.447-0.043,0.853-0.256,1.139-0.604c0.286-0.347,0.422-0.783,0.381-1.229   c-0.191-2.046-0.288-4.116-0.288-6.15C59.235,67.182,67.056,49.603,80.688,37.304z"/><path d="M84.549,61.466c0.064-0.445-0.047-0.889-0.316-1.25c-0.538-0.719-1.645-0.881-2.356-0.343   c-8.997,6.693-15.299,16.418-17.743,27.382c-0.323,1.451-0.579,2.923-0.762,4.375c-0.112,0.922,0.542,1.765,1.45,1.879   c0.073,0.009,0.15,0.013,0.224,0.013c0.844,0,1.559-0.632,1.666-1.472c0.177-1.379,0.415-2.746,0.71-4.061   c2.264-10.175,8.111-19.2,16.465-25.415C84.247,62.305,84.484,61.911,84.549,61.466z"/><path d="M17.767,59.871c-0.718-0.531-1.821-0.37-2.356,0.347c-0.554,0.744-0.398,1.801,0.346,2.356   c8.352,6.213,14.198,15.238,16.464,25.415c0.299,1.347,0.538,2.714,0.708,4.061c0.108,0.84,0.827,1.472,1.67,1.472   c0.071,0,0.142-0.004,0.211-0.013c0.448-0.056,0.846-0.281,1.124-0.637c0.275-0.357,0.396-0.799,0.338-1.244   c-0.191-1.495-0.448-2.968-0.764-4.373C33.066,76.293,26.766,66.568,17.767,59.871z"/><path d="M21.174,34.803c-0.665-0.599-1.781-0.542-2.378,0.121c-0.302,0.335-0.456,0.766-0.433,1.216   c0.023,0.449,0.219,0.862,0.554,1.164c13.63,12.301,21.449,29.878,21.449,48.228c0,2.054-0.095,4.124-0.286,6.148   c-0.043,0.448,0.092,0.885,0.376,1.231c0.289,0.349,0.693,0.562,1.132,0.603l0.168,0.008c0.874,0,1.592-0.656,1.676-1.525   c0.2-2.139,0.301-4.312,0.301-6.465C43.734,66.232,35.511,47.743,21.174,34.803z"/></g></svg></svg> <defs><filter id="colors423427508"><feColorMatrix type="matrix" values="0 0 0 0 0.953125  0 0 0 0 0.44921875  0 0 0 0 0.25  0 0 0 1 0" class="icon-fecolormatrix"/></filter> <filter id="colorsf9745506650"><feColorMatrix type="matrix" values="0 0 0 0 0.99609375  0 0 0 0 0.99609375  0 0 0 0 0.99609375  0 0 0 1 0" class="icon-fecolormatrix"/></filter> <filter id="colorsb1205125538"><feColorMatrix type="matrix" values="0 0 0 0 0  0 0 0 0 0  0 0 0 0 0  0 0 0 1 0" class="icon-fecolormatrix"/></filter></defs></g></g> <g transform="translate(63.8967399597168,0)"><g data-gra="path-name" fill-rule="" class="tp-name iconsvg-namesvg" transform="translate(0,0)"><g transform="scale(0.5999999999999998)"><g><path d="M26.17 1.33Q19.87 1.33 14.37-1.51L14.37-1.51Q11.89-2.75 10.2-4.44L10.2-4.44Q8.96-2.4 7.1-0.8L7.1-0.8Q5.5 0.35 5.32 0.44L5.32 0.44 3.11 0.44 3.11-16.41 6.65-16.41Q7.99-12.07 10.38-8.61L10.38-8.61Q15.79-0.89 24.4-0.89L24.4-0.89Q29.46-0.89 32.47-3.9 35.49-6.92 35.49-11.98L35.49-11.98Q35.49-14.91 33.76-17.21 32.03-19.52 29.46-21.29 26.88-23.07 22.27-25.73L22.27-25.73Q16.41-29.01 12.78-31.68 9.14-34.34 6.57-38.37 3.99-42.41 3.99-47.91L3.99-47.91Q3.99-52.26 6.43-55.76 8.87-59.27 13.75-61.35 18.63-63.44 25.73-63.44L25.73-63.44Q30.88-63.44 36.02-60.51L36.02-60.51Q37.97-59.45 39.93-57.67L39.93-57.67Q41.44-59.98 43.03-61.31L43.03-61.31Q44.63-62.46 44.81-62.55L44.81-62.55 47.03-62.55 47.03-45.69 43.48-45.69Q42.32-49.95 40.02-53.41L40.02-53.41Q37.89-56.78 34.74-59 31.59-61.22 27.51-61.22L27.51-61.22Q24.04-61.22 21.56-58.47 19.08-55.72 19.08-51.46L19.08-51.46Q19.08-48.18 20.98-45.56 22.89-42.94 25.69-40.99 28.48-39.04 33.27-36.29L33.27-36.29Q38.86-33.09 42.32-30.61 45.78-28.13 48.18-24.44 50.57-20.76 50.57-15.97L50.57-15.97Q50.57-11.18 47.82-7.23 45.07-3.28 39.57-0.98 34.07 1.33 26.17 1.33L26.17 1.33ZM60.23 0L60.23-1.33 65.55-2.66 65.55-59.45 60.23-60.78 60.23-62.11 107.7-62.11 107.7-46.14 105.04-46.14Q103.35-47.47 102.11-49.51L102.11-49.51Q99.27-54.3 99.27-59.89L99.27-59.89 80.19-59.89 80.19-31.94 90.4-31.94Q91.02-35.31 92.7-38.24L92.7-38.24Q93.41-39.57 94.39-40.81L94.39-40.81 97.05-40.81 97.05-20.85 94.39-20.85Q93.41-22.09 92.7-23.42L92.7-23.42Q91.02-26.35 90.4-29.72L90.4-29.72 80.19-29.72 80.19-2.22 101.04-2.22Q101.04-7.81 103.88-12.6L103.88-12.6Q105.12-14.64 106.81-15.97L106.81-15.97 109.47-15.97 109.47 0 60.23 0Z" transform="translate(-3.109999895095825, 63.439998626708984)"/></g> <!----> <!----> <!----> <!----> <!----> <!----> <g data-gra="path-name-1" fill="#333333" transform="translate(109.36000061035156,0)"><g transform="scale(1)"><path d="M4.44 0L4.44-1.33 9.76-2.66 9.76-59.45 4.44-60.78 4.44-62.11 28.39-62.11Q41.88-62.11 48.22-57.81 54.57-53.5 54.57-46.58L54.57-46.58Q54.57-41.79 51.82-38.86 49.07-35.93 44.81-34.51L44.81-34.51Q40.28-32.92 35.05-32.83L35.05-32.83 35.05-32.39Q41.52-32.12 46.32-30.43L46.32-30.43Q51.2-28.84 54.43-25.46 57.67-22.09 57.67-16.86L57.67-16.86Q57.67-8.96 51.2-4.48 44.72 0 30.17 0L30.17 0 4.44 0ZM24.4-33.72L28.39-33.72Q31.32-33.72 33.85-35.36 36.38-37 37.93-39.97 39.48-42.94 39.48-46.58L39.48-46.58Q39.48-50.49 37.93-53.5 36.38-56.52 33.85-58.2 31.32-59.89 28.39-59.89L28.39-59.89 24.4-59.89 24.4-33.72ZM24.4-2.22L30.17-2.22Q35.67-2.22 39.13-6.12 42.59-10.03 42.59-16.86L42.59-16.86Q42.59-23.69 39.13-27.59 35.67-31.5 30.17-31.5L30.17-31.5 24.4-31.5 24.4-2.22ZM89.51 1.33Q83.21 1.33 77.71-1.51L77.71-1.51Q75.22-2.75 73.54-4.44L73.54-4.44Q72.3-2.4 70.43-0.8L70.43-0.8Q68.84 0.35 68.66 0.44L68.66 0.44 66.44 0.44 66.44-16.41 69.99-16.41Q71.32-12.07 73.72-8.61L73.72-8.61Q79.13-0.89 87.73-0.89L87.73-0.89Q92.79-0.89 95.81-3.9 98.82-6.92 98.82-11.98L98.82-11.98Q98.82-14.91 97.09-17.21 95.36-19.52 92.79-21.29 90.22-23.07 85.6-25.73L85.6-25.73Q79.75-29.01 76.11-31.68 72.47-34.34 69.9-38.37 67.33-42.41 67.33-47.91L67.33-47.91Q67.33-52.26 69.77-55.76 72.21-59.27 77.09-61.35 81.97-63.44 89.06-63.44L89.06-63.44Q94.21-63.44 99.36-60.51L99.36-60.51Q101.31-59.45 103.26-57.67L103.26-57.67Q104.77-59.98 106.37-61.31L106.37-61.31Q107.96-62.46 108.14-62.55L108.14-62.55 110.36-62.55 110.36-45.69 106.81-45.69Q105.66-49.95 103.35-53.41L103.35-53.41Q101.22-56.78 98.07-59 94.92-61.22 90.84-61.22L90.84-61.22Q87.38-61.22 84.89-58.47 82.41-55.72 82.41-51.46L82.41-51.46Q82.41-48.18 84.32-45.56 86.23-42.94 89.02-40.99 91.82-39.04 96.61-36.29L96.61-36.29Q102.2-33.09 105.66-30.61 109.12-28.13 111.51-24.44 113.91-20.76 113.91-15.97L113.91-15.97Q113.91-11.18 111.16-7.23 108.41-3.28 102.91-0.98 97.41 1.33 89.51 1.33L89.51 1.33Z" transform="translate(-4.440000057220459, 63.439998626708984)"/></g></g></g></g> <g data-gra="path-slogan" fill-rule="" class="tp-slogan iconsvg-slogansvg" fill="#333333" transform="translate(5,46.86199951171875)"><rect x="0" height="1" y="2.987999677658081" width="23.402603149414062"/> <rect height="1" y="2.987999677658081" width="23.402603149414062" x="97.89540100097656"/> <g transform="translate(26.402603149414062,0)"><g transform="scale(1.2800000000000002)"><path d="M0.72 0L0.72-5.25L3.75-5.25L3.75-4.69L1.39-4.69L1.39-3.04L3.38-3.04L3.38-2.47L1.39-2.47L1.39-0.57L3.83-0.57L3.83 0L0.72 0ZM6.90 0L5.22-5.25L5.93-5.25L6.77-2.42Q6.92-1.95 7.02-1.55Q7.13-1.14 7.28-0.68L7.28-0.68L7.32-0.68Q7.46-1.14 7.57-1.55Q7.69-1.95 7.82-2.42L7.82-2.42L8.66-5.25L9.34-5.25L7.68 0L6.90 0ZM11.06 0L11.06-5.25L14.09-5.25L14.09-4.69L11.73-4.69L11.73-3.04L13.72-3.04L13.72-2.47L11.73-2.47L11.73-0.57L14.17-0.57L14.17 0L11.06 0ZM16.28 0L16.28-5.25L16.97-5.25L18.87-1.95L19.44-0.86L19.47-0.86Q19.44-1.26 19.42-1.69Q19.39-2.12 19.39-2.54L19.39-2.54L19.39-5.25L20.02-5.25L20.02 0L19.33 0L17.43-3.31L16.86-4.39L16.83-4.39Q16.86-3.99 16.89-3.57Q16.91-3.16 16.91-2.75L16.91-2.75L16.91 0L16.28 0ZM23.55 0L23.55-4.69L21.97-4.69L21.97-5.25L25.81-5.25L25.81-4.69L24.22-4.69L24.22 0L23.55 0ZM27.06-0.68L27.46-1.14Q27.74-0.85 28.12-0.67Q28.50-0.49 28.91-0.49L28.91-0.49Q29.43-0.49 29.71-0.72Q30.00-0.96 30.00-1.35L30.00-1.35Q30.00-1.55 29.93-1.69Q29.87-1.83 29.75-1.93Q29.63-2.03 29.47-2.11Q29.31-2.19 29.13-2.27L29.13-2.27L28.38-2.60Q28.19-2.68 28.00-2.79Q27.81-2.91 27.66-3.07Q27.51-3.23 27.41-3.45Q27.31-3.67 27.31-3.95L27.31-3.95Q27.31-4.25 27.44-4.51Q27.56-4.76 27.78-4.95Q28.00-5.14 28.30-5.24Q28.60-5.35 28.96-5.35L28.96-5.35Q29.43-5.35 29.83-5.17Q30.24-4.99 30.52-4.70L30.52-4.70L30.16-4.27Q29.91-4.50 29.62-4.63Q29.33-4.76 28.96-4.76L28.96-4.76Q28.52-4.76 28.25-4.56Q27.99-4.36 27.99-4.00L27.99-4.00Q27.99-3.80 28.06-3.67Q28.14-3.54 28.27-3.44Q28.39-3.34 28.55-3.26Q28.70-3.19 28.86-3.12L28.86-3.12L29.60-2.80Q29.83-2.71 30.03-2.58Q30.23-2.46 30.37-2.29Q30.52-2.13 30.60-1.91Q30.68-1.69 30.68-1.40L30.68-1.40Q30.68-1.09 30.56-0.82Q30.44-0.54 30.20-0.34Q29.97-0.14 29.64-0.02Q29.31 0.10 28.90 0.10L28.90 0.10Q28.35 0.10 27.87-0.11Q27.40-0.32 27.06-0.68L27.06-0.68ZM35.33 0L35.33-5.25L38.36-5.25L38.36-4.69L36.00-4.69L36.00-3.04L37.99-3.04L37.99-2.47L36.00-2.47L36.00-0.57L38.44-0.57L38.44 0L35.33 0ZM41.21-2.14L42.79-2.14L42.54-2.94Q42.39-3.38 42.27-3.81Q42.14-4.25 42.01-4.71L42.01-4.71L41.98-4.71Q41.86-4.25 41.73-3.81Q41.60-3.38 41.46-2.94L41.46-2.94L41.21-2.14ZM43.45 0L42.95-1.60L41.04-1.60L40.54 0L39.86 0L41.63-5.25L42.39-5.25L44.16 0L43.45 0ZM45.52-0.68L45.92-1.14Q46.20-0.85 46.58-0.67Q46.96-0.49 47.37-0.49L47.37-0.49Q47.89-0.49 48.18-0.72Q48.47-0.96 48.47-1.35L48.47-1.35Q48.47-1.55 48.40-1.69Q48.33-1.83 48.22-1.93Q48.10-2.03 47.94-2.11Q47.78-2.19 47.60-2.27L47.60-2.27L46.84-2.60Q46.66-2.68 46.47-2.79Q46.28-2.91 46.12-3.07Q45.97-3.23 45.88-3.45Q45.78-3.67 45.78-3.95L45.78-3.95Q45.78-4.25 45.90-4.51Q46.03-4.76 46.25-4.95Q46.47-5.14 46.77-5.24Q47.07-5.35 47.43-5.35L47.43-5.35Q47.90-5.35 48.30-5.17Q48.70-4.99 48.98-4.70L48.98-4.70L48.62-4.27Q48.38-4.50 48.09-4.63Q47.80-4.76 47.43-4.76L47.43-4.76Q46.99-4.76 46.72-4.56Q46.45-4.36 46.45-4.00L46.45-4.00Q46.45-3.80 46.53-3.67Q46.60-3.54 46.73-3.44Q46.86-3.34 47.01-3.26Q47.16-3.19 47.32-3.12L47.32-3.12L48.07-2.80Q48.29-2.71 48.49-2.58Q48.69-2.46 48.84-2.29Q48.98-2.13 49.07-1.91Q49.15-1.69 49.15-1.40L49.15-1.40Q49.15-1.09 49.03-0.82Q48.90-0.54 48.67-0.34Q48.44-0.14 48.11-0.02Q47.78 0.10 47.36 0.10L47.36 0.10Q46.81 0.10 46.34-0.11Q45.87-0.32 45.52-0.68L45.52-0.68ZM51.98 0L51.98-2.03L50.40-5.25L51.11-5.25L51.79-3.77Q51.92-3.48 52.04-3.20Q52.16-2.92 52.30-2.63L52.30-2.63L52.33-2.63Q52.46-2.92 52.60-3.20Q52.74-3.48 52.86-3.77L52.86-3.77L53.53-5.25L54.23-5.25L52.65-2.03L52.65 0L51.98 0Z" transform="translate(-0.7205444113330073, 5.348040741893876)"/></g></g></g></g></g><defs v-gra="od"/></svg>